<svg xmlns="http://www.w3.org/2000/svg" viewBox="0 0 118.11 115.68"><defs><style>.cls-1{fill:#fff;}</style></defs><title>burger-close</title><g id="Calque_2" data-name="Calque 2"><g id="Calque_1-2" data-name="Calque 1"><path class="cls-1" d="M117.27,111.44s-16.43-22.25-23.68-29.5L67.73,56.08c2.57-1.77,4.56-2.85,4.56-2.85l16-13,16.92-16.92s5.8-8.7,8.21-11.13,4.34-10.16-2-6.78c0,0-22.25,16.43-29.5,23.68L61.31,49.65,59.75,48.1,42.83,31.17,22.53,8S5.61-9,9.46,6.53s17.88,20.8,17.88,20.8,1,3.87,8.21,11.12L42.8,45.7S49.51,51,55.18,55.78l-7.08,7.08L31.17,79.79,8,100.09S-9,117,6.53,113.16,27.33,95.28,27.33,95.28s3.87-1,11.12-8.21l7.25-7.26S56.33,66.28,61.17,61.44l.14-.13a54.82,54.82,0,0,1,8.09,11l13,16,16.92,16.92s8.7,5.8,11.13,8.21S120.65,117.73,117.27,111.44Z"/></g></g></svg>