<svg xmlns="http://www.w3.org/2000/svg" viewBox="0 0 150.04 88.49"><defs><style>.cls-1{fill:#fff;}</style></defs><title>burger_2</title><g id="Calque_2" data-name="Calque 2"><g id="Calque_1-2" data-name="Calque 1"><path class="cls-1" d="M147.26,80.65h0s-26-3.92-35.81-3.92H43.08l-29.29-2S-9,74.77,4,82.61s26,2,26,2,3.25,2,13,2h9.77s16.28-2,22.79-2a51.84,51.84,0,0,1,13,2l19.53,2H131s9.77-2,13-2,9.77-3.92,3.26-5.88"/><path class="cls-1" d="M147.26,45.23h0s-26,3.92-35.81,3.92H43.08l-29.29,2S-9,51.11,4,43.26s26-2,26-2,3.25-2,13-2h9.77s16.28,2,22.79,2a51.84,51.84,0,0,0,13-2l19.53-2H131s9.77,2,13,2,9.77,3.92,3.26,5.88"/><path class="cls-1" d="M147.26,5.88h0S121.21,2,111.45,2H43.08L13.79,0S-9,0,4,7.84s26,2,26,2,3.25,2,13,2h9.77s16.28-2,22.79-2a51.84,51.84,0,0,1,13,2l19.53,2H131s9.77-2,13-2,9.77-3.92,3.26-5.88"/></g></g></svg>