<?xml version="1.0" encoding="utf-8"?>
<!-- Generator: Adobe Illustrator 17.0.2, SVG Export Plug-In . SVG Version: 6.00 Build 0)  -->
<!DOCTYPE svg PUBLIC "-//W3C//DTD SVG 1.1//EN" "http://www.w3.org/Graphics/SVG/1.1/DTD/svg11.dtd">
<svg version="1.1" id="Calque_1" xmlns="http://www.w3.org/2000/svg" xmlns:xlink="http://www.w3.org/1999/xlink" x="0px" y="0px"
	 width="104.566px" height="140.252px" viewBox="0 0 104.566 140.252" enable-background="new 0 0 104.566 140.252"
	 xml:space="preserve">
<path d="M101.7,126.714l-0.499,0.028l0,0l0.499-0.032v0c-0.334-5.152-0.26-10.422-0.187-15.519c0.032-2.236,0.064-4.471,0.063-6.701
	c-0.001-3.651-0.163-7.351-0.319-10.928c-0.167-3.846-0.341-7.823-0.315-11.738l0.004-0.515c0.006-0.687,0.013-1.376-0.015-2.062
	c-0.022-0.553-0.119-1.083-0.213-1.596c-0.058-0.314-0.115-0.628-0.155-0.947c-0.165-1.333-0.146-2.75-0.126-4.119
	c0.008-0.579,0.016-1.155,0.01-1.724c-0.04-4.311-0.157-7.868-0.37-11.196c-0.121-1.887-0.27-3.772-0.418-5.658
	c-0.147-1.87-0.295-3.74-0.415-5.611c-0.058-0.899-0.029-1.825-0.001-2.721c0.064-2.042,0.13-4.154-0.796-6.19
	c-0.73-1.604-1.834-2.876-3.195-3.68c-1.619-0.957-3.284-0.99-4.7-0.898c-3.842,0.251-7.714,0.34-11.891,0.372
	c0.046-0.404,0.098-0.808,0.149-1.212c0.086-0.673,0.172-1.346,0.233-2.021c0.114-1.267-0.232-2.278-1.03-3.009
	c-0.097-0.753-0.004-1.598,0.085-2.417c0.064-0.584,0.13-1.189,0.129-1.768c-0.001-0.646-0.045-1.327-0.355-1.933
	c-0.12-0.233-0.256-0.443-0.393-0.65c-0.21-0.321-0.392-0.598-0.487-0.946c-0.178-0.654-0.254-1.331-0.335-2.047
	c-0.078-0.69-0.158-1.404-0.338-2.105c-0.402-1.57-1.315-2.907-2.198-4.2l-0.286-0.419c-1.395-2.046-2.836-4.162-4.6-5.934
	c-1.018-1.022-2.188-1.869-3.684-2.666c-0.364-0.193-0.725-0.393-1.087-0.592c-1.032-0.568-2.099-1.155-3.214-1.619
	c-2.229-0.925-4.658-0.779-7.007-0.64c-0.903,0.054-1.767,0.102-2.599,0.099c-1.807-0.015-3.272,0.155-4.601,0.525
	c-1.275,0.355-2.483,0.938-3.652,1.501L43.038,3.4c-1.881,0.903-4.625,2.368-6.713,4.654c-1.847,2.022-3.36,4.563-4.597,6.781
	c-0.743,1.331-1.511,2.761-2.028,4.325c-0.428,1.292-0.603,2.645-0.773,3.953c-0.059,0.455-0.118,0.908-0.187,1.359
	c-0.131,0.853-0.255,1.771-0.281,2.705c-0.014,0.521,0.022,1.035,0.058,1.532c0.029,0.413,0.06,0.826,0.059,1.242
	c-0.001,0.788-0.075,1.598-0.145,2.381l-0.024,0.266c-0.03,0.34-0.038,0.695-0.046,1.053c-0.009,0.418-0.018,0.848-0.068,1.245
	c-0.347,0.035-0.725,0.028-1.095,0.021c-0.251-0.005-0.5-0.007-0.738-0.001c-0.864,0.026-1.728,0.056-2.592,0.086
	c-1.526,0.054-3.053,0.108-4.579,0.157l-0.198,0.006l-0.14,0.14c-0.29,0.29-0.573,0.585-0.855,0.88
	c-0.625,0.65-1.27,1.322-1.962,1.911l-0.195,0.166l0.02,0.255c0.059,0.734,0.117,1.468,0.165,2.203l0.031,0.465l0.466,0.002
	c4.181,0.01,8.019-0.109,11.701-0.387c-0.005,0.173-0.01,0.348-0.016,0.524c-0.055,1.654-0.116,3.529,0.635,5.1
	c0.296,0.618,1.122,2.071,2.404,2.219c1.914,0.231,3.021-1.753,3.396-3.51c0.242-1.141,0.355-2.293,0.465-3.408
	c0.044-0.448,0.088-0.896,0.14-1.344c1.894-0.098,3.855-0.02,5.755,0.056c0.998,0.04,1.993,0.079,2.977,0.094L67.8,40.898
	c0.463,0.005,0.947-0.008,1.438-0.023c0.86-0.027,1.746-0.053,2.55,0.04c0.018,0.347,0.013,0.803,0.008,1.307
	c-0.021,2.088-0.048,4.686,1.292,5.699c0.56,0.423,1.276,0.51,2.129,0.259c3.253-0.957,3.353-4.318,3.329-6.922
	c2.775-0.105,5.55-0.208,8.325-0.306l2.34-0.081c0.163-0.005,0.327-0.016,0.492-0.027c0.512-0.035,0.995-0.067,1.41,0.078
	c0.35,0.122,0.693,0.264,1.036,0.406c0.209,0.086,0.418,0.172,0.628,0.254c0.115,0.045,0.244,0.103,0.382,0.165
	c0.318,0.143,0.665,0.297,1.005,0.387c-0.027,0.128-0.065,0.266-0.102,0.395c-0.043,0.154-0.084,0.303-0.111,0.44
	c-0.095,0.482-0.209,1.123-0.254,1.792c-0.062,0.943-0.013,1.899,0.035,2.824c0.017,0.319,0.033,0.637,0.045,0.953
	c0.077,2.047,0.168,4.093,0.264,6.139l0.009,0.197l0.141,0.138c0.976,0.953,0.965,2.136,0.954,3.506l-0.003,0.458
	c0,0.503-0.013,1.011-0.025,1.521c-0.026,1.032-0.052,2.099,0.03,3.185c0.009,0.116,0.017,0.21,0.038,0.329
	c0.125,0.708,0.191,1.26,0.161,1.985c-0.022,0.528-0.057,1.057-0.092,1.585c-0.048,0.727-0.095,1.453-0.112,2.179
	c-0.023,1.016-0.015,2.033-0.008,3.05c0.004,0.504,0.008,1.009,0.008,1.513l0.002,0.323c0.006,0.537,0.011,1.044-0.125,1.506
	c-0.326,1.105-0.329,2.268-0.333,3.392c0,0.295-0.001,0.59-0.008,0.882c-0.078,3.345-0.016,6.803,0.19,10.571
	c0.229,4.199,0.279,7.456,0.162,10.56c-0.107,2.849,0.047,5.746,0.196,8.548c0.038,0.711,0.076,1.421,0.109,2.13l0.318,6.508
	c0.072,1.469,0.149,2.938,0.227,4.406l0.058,1.107c0.054,1.021,0.106,2.042,0.155,3.063c0.01,0.211,0.041,0.464,0.074,0.735
	c0.063,0.513,0.146,1.188,0.045,1.601l-0.28,0.088c-1.053,0.332-2.141,0.674-3.229,0.775c-0.908,0.085-1.848,0.112-2.757,0.138
	c-0.392,0.011-0.784,0.022-1.174,0.038c-2.904,0.115-5.808,0.209-8.713,0.29c-3.417,0.095-6.895,0.11-10.258,0.124
	c-3.291,0.014-6.693,0.028-10.042,0.118c-1.801,0.048-3.601,0.115-5.4,0.182c-3.992,0.147-8.121,0.303-12.181,0.237l-11.611-0.182
	c-3.893-0.062-7.785-0.127-11.677-0.202c-2.003-0.039-4.005-0.08-6.008-0.124c-1.675-0.037-3.284-0.27-4.987-0.518l-0.052-0.007
	c0.27-2.234,0.303-4.509,0.334-6.714c0.01-0.678,0.02-1.355,0.036-2.03l0.229-9.596c0.099-4.094,0.302-8.5,0.64-13.867l0.104-1.649
	c0.345-5.469,0.702-11.125,0.908-16.697c0.075-2.032,0.264-4.106,0.447-6.111c0.086-0.947,0.172-1.894,0.248-2.839
	c0.125-1.579,0.247-3.159,0.357-4.739c0.013-0.186,0.037-0.381,0.061-0.578c0.055-0.462,0.113-0.94,0.065-1.402
	c-0.028-0.272-0.1-0.52-0.169-0.759c-0.068-0.235-0.133-0.458-0.146-0.676c-0.092-1.547-0.097-3.134-0.103-4.668
	c-0.005-1.611-0.011-3.276-0.116-4.914c-0.041-0.632-0.087-1.259-0.133-1.885c-0.177-2.404-0.345-4.676-0.189-7.046l0.02-0.305
	l-0.263-0.157c-0.936-0.558-1.946-0.935-3.013,0.072L7.029,44.18L7.008,44.36c-0.707,6.043-1.095,10.715-1.26,15.147
	C5.543,65.023,5.191,70.575,4.84,75.753c-0.311,4.601-0.587,9.534-0.895,15.996c-0.158,3.326-0.412,6.705-0.657,9.972
	c-0.146,1.938-0.291,3.876-0.418,5.815c-0.108,1.653-0.139,3.328-0.168,4.948c-0.017,0.944-0.034,1.889-0.066,2.833l-0.104,2.904
	c-0.064,1.746-0.129,3.491-0.177,5.237c-0.018,0.64-0.042,1.283-0.067,1.928c-0.066,1.743-0.135,3.545-0.065,5.306
	c0.083,2.091,1.223,3.997,3.386,5.664c1.778,1.37,3.791,1.383,5.736,1.396l0.792,0.009c1.244,0.023,2.489,0.053,3.733,0.083
	l5.841,0.139c3.499,0.085,6.998,0.17,10.497,0.231c3.012,0.051,6.073,0.029,9.032,0.007c2.962-0.022,6.025-0.045,9.035,0.008
	c0.939,0.017,1.883,0.074,2.829,0.13c1.131,0.068,2.285,0.138,3.441,0.138c0.76,0,1.521-0.03,2.276-0.11
	c0.83-0.088,1.66-0.223,2.463-0.354c0.635-0.103,1.271-0.207,1.909-0.288c0.812-0.103,1.472-0.152,2.076-0.153
	c0.13,0,0.241,0.008,0.363,0.016c0.195,0.013,0.391,0.024,0.581,0.015c0.104-0.006,0.228-0.04,0.454-0.104
	c0.087-0.025,0.178-0.052,0.247-0.069l0.01,0.003l0.124-0.021c0.283-0.047,0.569-0.103,0.858-0.16
	c0.724-0.141,1.472-0.287,2.171-0.287c0.243,0.002,0.538,0.017,0.805,0.034c0.387,0.025,0.772,0.048,1.174,0.03
	c0.772-0.036,1.544-0.064,2.317-0.076c1.94-0.023,3.882,0.192,5.761,0.404c1.085,0.123,2.208,0.25,3.331,0.33
	c1.577,0.113,3.157,0.151,4.64,0.18c0.474,0.009,0.955,0.033,1.438,0.057c1.016,0.051,2.066,0.102,3.087,0.022
	c0.646-0.051,1.18-0.312,1.65-0.542c0.436-0.213,0.847-0.414,1.304-0.436c0.22-0.01,0.437-0.014,0.65-0.018
	c1.073-0.02,2.184-0.04,3.231-0.873c1.075-0.855,1.21-2.072,1.329-3.146c0.05-0.449,0.097-0.873,0.203-1.276
	c0.075-0.289,0.168-0.574,0.261-0.86c0.157-0.483,0.319-0.982,0.406-1.507C101.81,128.434,101.754,127.56,101.7,126.714z
	 M36.558,34.805c-0.034-0.001-0.11-0.007-0.209-0.015c-0.415-0.031-0.715-0.048-0.943-0.047c-0.108-0.347-0.155-0.786-0.195-1.156
	l-0.034-0.305c-0.089-0.739-0.121-1.511-0.095-2.361c0.049-1.627,0.238-3.236,0.561-4.783c0.282-1.347,0.713-2.691,1.129-3.992
	l0.151-0.474c0.089-0.28,0.174-0.561,0.259-0.843c0.13-0.432,0.26-0.864,0.408-1.29c0.133-0.385,0.317-0.751,0.511-1.139
	c0.179-0.357,0.357-0.713,0.498-1.085c0.184-0.482,0.276-0.994,0.365-1.488c0.079-0.435,0.153-0.846,0.283-1.228
	c0.351-1.028,0.845-1.999,1.469-2.886c1.255-1.784,2.981-3.163,4.993-3.986c1.012-0.413,4.509-1.652,7.03-0.188l0.138,0.08
	l0.16-0.015c2.259-0.213,4.14,0.383,6.321,1.072l0.584,0.184c2.882,0.901,4.854,1.953,6.392,3.41
	c0.948,0.897,1.627,1.746,2.078,2.594c0.401,0.757,0.628,1.57,0.869,2.431c0.107,0.386,0.216,0.773,0.34,1.156
	c0.195,0.601,0.457,1.164,0.71,1.709c0.296,0.637,0.576,1.238,0.753,1.888c0.339,1.244,0.469,2.559,0.563,3.693
	c0.218,2.618,0.229,5.269,0.239,7.832c0.002,0.558,0.004,1.117,0.009,1.677c-0.438,0.014-0.892-0.001-1.333-0.015
	c-0.18-0.006-0.36-0.012-0.539-0.016V34.98L36.558,34.805z"/>
</svg>
